<?xml version="1.0" encoding="UTF-8"?>
<!DOCTYPE svg PUBLIC "-//W3C//DTD SVG 1.1//EN" "http://www.w3.org/Graphics/SVG/1.1/DTD/svg11.dtd">
<!-- Creator: CorelDRAW 2020 (64-Bit) -->
<svg xmlns="http://www.w3.org/2000/svg" xml:space="preserve" width="2.49852in" height="2.36462in" version="1.1" style="shape-rendering:geometricPrecision; text-rendering:geometricPrecision; image-rendering:optimizeQuality; fill-rule:evenodd; clip-rule:evenodd"
viewBox="0 0 2261.63 2140.42"
 xmlns:xlink="http://www.w3.org/1999/xlink"
 xmlns:xodm="http://www.corel.com/coreldraw/odm/2003">
 <defs>
  <style type="text/css">
   <![CDATA[
    .fil0 {fill:#00786F}
    .fil1 {fill:#2AC7BD}
   ]]>
  </style>
 </defs>
 <g id="Layer_x0020_1">
  <metadata id="CorelCorpID_0Corel-Layer"/>
  <path class="fil0" d="M561.39 349.08c-222.14,67.36 -117.66,388.67 96.04,324.66 73.3,-21.96 139.22,-105.18 111.16,-207.96 -20.4,-74.71 -103.07,-148.26 -207.2,-116.69zm571.16 97.24c81.46,-97.81 134.1,-169.01 256.84,-241.65 385.89,-228.37 794.36,94.58 712.52,642.63 -24.01,160.77 -101.55,327.71 -193.58,438.03 -67.49,80.9 -119.49,122.41 -186.24,192.81l-102.2 87.72c-13.64,11.03 -19.74,18.53 -33.51,29.4l-415.66 341.72 -256.78 -303.72c-71.68,-91.22 -167.16,-220.44 -206.92,-361.9 -52.71,-187.52 61.33,-312.05 142.92,-398.49 70.45,-74.64 200.04,-200.18 237.74,-332.13 -28.9,9.63 -31.06,25.1 -47.23,45.33 -96.56,120.78 -256.73,232.64 -424.29,235.67 -394.59,7.14 -475.18,-448.06 -233.47,-619.64 79.76,-56.61 185.32,-83.77 307.14,-64.56 115.31,18.18 255.89,98.15 309.17,160.78l90.62 98.57c10.5,11.89 33.36,36.79 42.94,49.43zm-3.97 -170.33c-42.03,-45.37 -100.84,-105.43 -153.56,-143.55 -53.71,-38.82 -118.38,-75.39 -194.03,-101.18 -447.65,-152.58 -913.42,271.9 -746.16,872.54 62.06,222.82 185.01,395.71 341.99,543.01l429.84 377.66c18.85,14.57 18.8,13.76 37.38,32.83 26.11,26.79 47.69,37.63 77.01,70.47 23.26,26.06 50.11,45.9 76.49,71.12 27.21,26 48.2,45.9 74.38,72.99 13.29,13.76 21.13,22.27 33.95,36.28l28.31 27.38c0.78,0.57 3.61,3.74 4.19,2.51 0.57,-1.23 2.78,1.74 4.27,2.39 16.95,-18.52 22.02,-25.63 35.21,-41.24l298.72 -283.97c139.04,-123.96 290.43,-247.01 423.35,-376.81 48.04,-46.92 90.7,-93.92 135.71,-152.35 79.52,-103.21 150.28,-240.45 191.89,-391.01 105.88,-383.15 -47.36,-687.07 -283.55,-819.1 -139.9,-78.21 -301.01,-101.2 -473.09,-42.93 -113.62,38.48 -189.26,100.63 -270.94,171.7l-62.86 64.72c-0.84,0.76 -3.57,4.54 -4.19,3.3 -0.62,-1.25 -2.78,2.28 -4.29,3.23z"/>
  <path class="fil1" d="M1152.32 1098.37l203.8 0 0 203.79c0,21.52 17.62,39.15 39.16,39.15l218.25 0c21.54,0 39.15,-17.63 39.15,-39.15l0 -203.79 203.8 0c21.52,0 39.15,-17.62 39.15,-39.16l0 -218.25c0,-21.54 -17.63,-39.16 -39.15,-39.16l-140.27 0c2.97,0.08 5.53,1.36 7.39,3.71 1.92,2.42 2.56,5.31 1.85,8.32l-65.45 276.98c-1.06,4.47 -4.93,7.54 -9.53,7.54l-60.71 0c-3.1,0 -5.77,-1.29 -7.69,-3.72 -1.92,-2.43 -2.56,-5.33 -1.84,-8.34l21.56 -89.98c1.08,-4.53 -1.08,-9.07 -5.26,-11.1 -4.19,-2.02 -9.09,-0.89 -11.96,2.78l-83.49 106.62c-1.92,2.45 -4.6,3.75 -7.71,3.75l-48.64 0c-5.27,0 -9.6,-4.17 -9.79,-9.44l-3.5 -98.53c-0.16,-4.52 -3.25,-8.23 -7.66,-9.21 -4.42,-0.98 -8.79,1.08 -10.84,5.11l-54.42 106.73c-1.72,3.36 -4.95,5.34 -8.72,5.34l-58.64 0c-3.51,0 -6.53,-1.69 -8.35,-4.68 -1.83,-2.99 -1.96,-6.45 -0.36,-9.57l142.14 -276.99c1.72,-3.35 4.94,-5.32 8.71,-5.32l57.25 0c5.24,0 9.54,4.12 9.78,9.35l6.76 150.16c0.19,4.16 2.8,7.59 6.76,8.87 3.96,1.28 8.09,0.04 10.68,-3.22l128.45 -161.47c1.86,-2.34 4.42,-3.61 7.37,-3.69l-7.66 0 0 -203.8c0,-21.52 -17.62,-39.14 -39.15,-39.14l-218.25 0c-21.54,0 -39.16,17.63 -39.16,39.14l0 203.8 -203.8 0c-21.52,0 -39.15,17.62 -39.15,39.16l0 218.25c0,21.54 17.63,39.16 39.15,39.16z"/>
 </g>
</svg>
